<svg id="Calque_1" data-name="Calque 1" xmlns="http://www.w3.org/2000/svg" viewBox="0 0 1334.67 1334.67"><defs><style>.cls-1{fill:none;stroke:#000;stroke-miterlimit:10;}</style></defs><path d="M804.06,478.05a137.49,137.49,0,0,1-137.78,137.2h-.1c-75.44-.23-136.86-62-136.71-137.58a137.44,137.44,0,0,1,137.7-137.19h.18C742.8,340.7,804.23,402.51,804.06,478.05Zm-249.65-.55c-.29,61.8,50,112.56,111.76,112.77a112.47,112.47,0,0,0,112.9-111.63c.62-61.7-49.67-112.82-111.35-113.17A112.43,112.43,0,0,0,554.41,477v.49Z" transform="translate(0.5 0.5)"/><path d="M754,479.11c-1.11,49-40.69,87.12-89.36,86.13-47.58-1-86.24-41.18-85.19-88.63,1.09-48.94,40.66-87.08,89.36-86.12C716.42,391.43,755.09,431.66,754,479.11Zm-24.94-1.17a62.34,62.34,0,1,0-62.42,62.35A62.34,62.34,0,0,0,729.08,477.94Z" transform="translate(0.5 0.5)"/><path d="M500.18,658.71c.56.88,1.09,1.8,1.63,2.72l27.37,43.41L529,705c2,2.9,3.47,5,4.82,7.13,32.85,52.06,65.52,104.24,98.74,156.06,4.47,7,11.85,12,17.68,18.16a17.22,17.22,0,0,1,3.43,4.6l26.21.25c.89-2.61,2.68-4.6,5.79-6.74a59.28,59.28,0,0,0,15.67-16.71c33-51.66,65.54-103.57,98.24-155.4,1.28-2,2.63-4,4.75-7.19l-.23-.14,30.73-49.72.48.29L834,657.62c12.21-19.47,24.85-38.69,36.6-58.44C899.81,550.1,910.05,496.91,901,440.74,880.58,313.17,762.74,225.68,635.41,242.6,466.35,265,375.33,455.16,463.91,601,475.71,620.38,488.09,639.46,500.18,658.71Zm136.7-391.15C753.05,251,861,332.56,876.88,449c1.31,9.6,1.75,19.32,2.59,29-.55,38.92-9.83,75.51-30.41,108.48q-84.6,135.46-170.24,270.29c-7.15,11.33-17,11.33-24.13,0-57-90.27-115.21-179.8-170.51-271.1C406.18,456.84,487.68,288.84,636.88,267.56Z" transform="translate(0.5 0.5)"/><path d="M1090.59,1071.92q-60.72-160-121.71-320a28.57,28.57,0,0,0-11.37-13.23c-20.69-12.38-41.9-23.86-62.91-35.71-21.68-12.23-43.34-24.51-65.58-37.08,1.79-3-23.68,38.06-23.68,38.06,2.3,10.2,4.3,18.75,6.13,27.33,15.39,72.37,30.64,144.77,46.32,217.07,1.57,7.24.09,10.61-6.38,14.21-54.49,30.35-108.75,61.1-163.09,91.72-2.38,1.34-4.85,2.52-9.07,4.71v-9.61c0-51.07.06-102.13-.1-153.2a16.1,16.1,0,0,1,.56-4.52l-25.87-.25a4,4,0,0,1,.22,1.18q.24,81.6,0,163.19a15.28,15.28,0,0,1-.92,2.85L474,957.76c5.68-26.87,11.28-53.39,16.89-79.91,2.23-10.57,4.55-21.12,6.73-31.71,1.72-8.38-1.61-14.55-8.63-16.34-7.58-1.94-13.62,2-15.55,10.84-7.83,36-15.34,72.1-23.32,108.08-.8,3.58-3.15,8-6.13,9.73-53.68,30.65-107.56,60.93-161.42,91.28-1.14.65-2.41,1.09-4.79,2.16,1.21-3.89,1.93-6.75,3-9.48q52.21-137.52,104.62-275c1.36-3.56,4-7.55,7.14-9.37,35.56-20.44,71.35-40.5,107.09-60.64a39.85,39.85,0,0,1,4.37-1.69c-3.27,15.66-6.33,30.42-9.44,45.17-3.31,15.73-6.72,31.44-10,47.17-1.83,8.73,1.78,15.3,9.08,16.86s13.23-2.82,15.15-11.67c6.13-28.16,12.08-56.36,18.11-84.54.21-1,.55-1.93,1.3-4.45L504.08,666c-3,1.77-5.27,3.17-7.58,4.47-40.07,22.61-80.26,45-120.09,68a29.35,29.35,0,0,0-11.93,13.74c-31.12,80.93-61.69,162-92.53,243.08-10.32,27.13-21,54.13-31.53,81.2v16.65h16.66l114.8-65.12c27.48-15.55,55-31,82.48-46.58,3.69-2.11,6.5-2.6,10.53-.31Q561.76,1036,658.82,1090.6a17.53,17.53,0,0,1,2.93,2.58h10c19.32-11.2,38.54-22.55,58-33.57,45.79-25.93,91.7-51.67,137.5-77.58,4.07-2.32,7.25-3.37,12-.68q97.93,55.54,196.13,110.62c.45.25.72.8,1.08,1.2h8.32C1093.91,1086,1094.78,1083,1090.59,1071.92ZM1049,1048.51Q969.61,1003.83,890.4,959c-2.94-1.67-6-5.21-6.71-8.4Q856.62,825,830.14,699.38a28.05,28.05,0,0,1,0-4.1L883,725c18.83,10.61,37.77,21,56.41,32a20.51,20.51,0,0,1,8.36,9.4q53,138.54,105.37,277.28c.85,2.24,1.47,4.57,2.59,8.08-3.07-1.46-5-2.27-6.82-3.29Z" transform="translate(0.5 0.5)"/><rect class="cls-1" x="0.5" y="0.5" width="1333.67" height="1333.67"/></svg>