<?xml version="1.0" encoding="utf-8"?>
<!-- Generator: Adobe Illustrator 26.0.3, SVG Export Plug-In . SVG Version: 6.00 Build 0)  -->
<svg version="1.1" id="Calque_2" xmlns="http://www.w3.org/2000/svg" xmlns:xlink="http://www.w3.org/1999/xlink" x="0px" y="0px"
	 viewBox="0 0 1190 1190.2" style="enable-background:new 0 0 1190 1190.2;" xml:space="preserve">
<g>
	<g>
		<path d="M595,255.8c51.3,0,99.6,20,135.9,56.3c36.3,36.3,56.3,84.6,56.3,135.9s-20,99.6-56.3,135.9
			c-36.3,36.3-84.6,56.3-135.9,56.3s-99.6-20-135.9-56.3c-36.3-36.3-56.3-84.6-56.3-135.9s20-99.6,56.3-135.9
			C495.4,275.8,543.7,255.8,595,255.8 M595,225.8c-122.7,0-222.2,99.5-222.2,222.2S472.3,670.3,595,670.3s222.2-99.5,222.2-222.2
			S717.7,225.8,595,225.8L595,225.8z"/>
	</g>
	<g>
		<path d="M595,339.2c29.1,0,56.4,11.3,77,31.9c20.6,20.6,31.9,47.9,31.9,77s-11.3,56.4-31.9,77s-47.9,31.9-77,31.9
			s-56.4-11.3-77-31.9c-20.6-20.6-31.9-47.9-31.9-77s11.3-56.4,31.9-77C538.6,350.5,565.9,339.2,595,339.2 M595,309.2
			c-76.7,0-138.9,62.2-138.9,138.9c0,76.7,62.2,138.9,138.9,138.9c76.7,0,138.9-62.2,138.9-138.9C733.9,371.3,671.7,309.2,595,309.2
			L595,309.2z"/>
	</g>
	<g>
		<path d="M595,100.3c47,0,92.5,9.2,135.3,27.3c41.4,17.5,78.6,42.6,110.5,74.5c31.9,31.9,57,69.1,74.5,110.5
			c18.1,42.8,27.3,88.4,27.3,135.3c0,42.6-15.6,103.1-45.2,174.9C871,687.1,833.7,760,789.4,833.7c-39.7,66.2-83,129.6-121.9,178.7
			c-41.4,52.2-63.3,69.9-71.8,75.5c-4-2.9-11-8.6-21.7-19.5c-14.2-14.5-30.8-33.7-49.3-57.3c-39.2-49.9-82.6-113.4-122.3-178.8
			c-44.8-74-82.6-146.6-109.2-210.1c-30-71.5-45.8-131.7-45.8-174c0-47,9.2-92.5,27.3-135.3c17.5-41.4,42.6-78.6,74.5-110.5
			c31.9-31.9,69.1-57,110.5-74.5C502.5,109.5,548,100.3,595,100.3 M595,70.3c-208.6,0-377.7,169.1-377.7,377.7
			S540,1119.9,595,1119.9c62.3,0,377.7-463.2,377.7-671.9S803.6,70.3,595,70.3L595,70.3z"/>
	</g>
</g>
</svg>
